<svg xmlns="http://www.w3.org/2000/svg" width="30.15" height="21.866" viewBox="0 0 30.15 21.866">
  <g id="mail-ic" transform="translate(-27.3 -90.1)">
    <path id="Path_991" data-name="Path 991" d="M52.033,90.1H32.711A5.418,5.418,0,0,0,27.3,95.511v11.045a5.418,5.418,0,0,0,5.411,5.411H52.04a5.418,5.418,0,0,0,5.411-5.411V95.511A5.424,5.424,0,0,0,52.033,90.1Zm-2.208,8.62L42.312,103.8,34.8,98.608a1.125,1.125,0,0,1-.33-1.489A1.111,1.111,0,0,1,36,96.73l6.3,4.31,6.3-4.31v.007a1,1,0,0,1,.185-.1,1.043,1.043,0,0,1,1.364.54.231.231,0,0,1,.033.053A1.07,1.07,0,0,1,49.825,98.72Z" fill="#ff8b00"/>
  </g>
</svg>
