<svg xmlns="http://www.w3.org/2000/svg" width="27.615" height="28.174" viewBox="0 0 27.615 28.174">
  <g id="skype-ic" transform="translate(-3 -3)">
    <path id="Path_993" data-name="Path 993" d="M16.863,25.566c-4.613,0-6.721-2.385-6.721-4.134a1.538,1.538,0,0,1,.466-1.1,1.481,1.481,0,0,1,1.111-.413c1.974,0,1.457,3.005,5.143,3.005,1.883,0,2.99-1.152,2.99-2.23,0-.65-.366-1.391-1.609-1.689l-4.115-1.053c-3.3-.853-3.88-2.719-3.88-4.448,0-3.589,3.237-4.89,6.317-4.89,2.839,0,6.214,1.59,6.214,3.742a1.477,1.477,0,0,1-1.651,1.424c-1.687,0-1.4-2.4-4.794-2.4-1.686,0-2.575.8-2.575,1.925s1.313,1.5,2.464,1.758l3.038.7c3.328.761,4.212,2.741,4.212,4.638,0,2.919-2.227,5.173-6.615,5.173M29.6,19.393a13.418,13.418,0,0,0,.2-2.32A13.261,13.261,0,0,0,25.178,6.94,12.852,12.852,0,0,0,14.553,4.035,7.541,7.541,0,0,0,10.724,3,7.754,7.754,0,0,0,4.041,6.943a7.987,7.987,0,0,0-.023,7.843A13.32,13.32,0,0,0,7.589,26.452a12.882,12.882,0,0,0,11.478,3.686,7.549,7.549,0,0,0,3.824,1.036,7.754,7.754,0,0,0,6.682-3.941,7.975,7.975,0,0,0,.025-7.84" transform="translate(0)" fill="#ff8b00"/>
  </g>
</svg>
