<svg xmlns="http://www.w3.org/2000/svg" width="27.615" height="27.623" viewBox="0 0 27.615 27.623">
  <path id="whatsapp-ic" d="M13.806,27.623h0A13.789,13.789,0,0,1,6.774,25.7l-.506-.3-5.227,1.37,1.4-5.1-.324-.519A13.819,13.819,0,0,1,13.809,0h.041A13.793,13.793,0,0,1,27.615,13.817,13.832,13.832,0,0,1,13.806,27.623ZM7.925,6.134a1.536,1.536,0,0,0-1.111.515l-.036.037a.619.619,0,0,1-.047.049,4.582,4.582,0,0,0-1.368,3.377,8.026,8.026,0,0,0,1.678,4.28l.013.016.034.047.05.072a17.583,17.583,0,0,0,7.011,6.147,23.778,23.778,0,0,0,2.362.873,5.686,5.686,0,0,0,2.62.164,4.268,4.268,0,0,0,2.8-1.973,3.5,3.5,0,0,0,.243-1.969,1.33,1.33,0,0,0-.563-.372l0,0-.227-.111c-.363-.183-2.445-1.2-2.834-1.352a1.427,1.427,0,0,0-.446-.1.578.578,0,0,0-.491.316c-.29.43-1.122,1.407-1.315,1.626a.565.565,0,0,1-.443.237,1.036,1.036,0,0,1-.456-.135c-.062-.032-.146-.068-.251-.114l-.023-.01a10.7,10.7,0,0,1-3.064-1.937,12.568,12.568,0,0,1-2.309-2.875c-.245-.423-.019-.646.182-.843.13-.133.277-.313.444-.516.06-.074.118-.147.177-.216a2.259,2.259,0,0,0,.362-.579c.018-.039.037-.076.055-.115a.783.783,0,0,0-.037-.727c-.07-.146-.486-1.161-.794-1.911-.206-.5-.375-.9-.483-1.169-.274-.658-.553-.713-.791-.713H8.717c-.212-.01-.48-.015-.791-.015Z" fill="#ff8b00"/>
</svg>
