<svg id="police-ic" xmlns="http://www.w3.org/2000/svg" width="40" height="40" viewBox="0 0 40 40">
  <g id="Ellipse_31" data-name="Ellipse 31" fill="#fc3b61" stroke="rgba(235,14,56,0.2)" stroke-width="4">
    <circle cx="20" cy="20" r="20" stroke="none"/>
    <circle cx="20" cy="20" r="18" fill="none"/>
  </g>
  <path id="Path_982" data-name="Path 982" d="M839.013,7613.564l-1.4-2.74a.805.805,0,0,0-.914-.421c-3.512.562-5.408-.491-6.252-1.194a.955.955,0,0,0-1.054,0c-.843.7-2.739,1.756-6.251,1.194a.963.963,0,0,0-.913.421l-1.475,2.811a.926.926,0,0,0,.422,1.193c.843.422,1.826,1.617.491,5.269-2.178,6.252,3.864,8.5,6.744,9.2a6.955,6.955,0,0,0,2.95,0c2.88-.7,8.922-2.95,6.744-9.2-1.265-3.723-.352-4.917.491-5.339A.9.9,0,0,0,839.013,7613.564Zm-6.4,6.046a2.963,2.963,0,0,1-2.057.669h-1.538v2.44h-1.806v-7.435h3.344a3.168,3.168,0,0,1,2.068.6,2.218,2.218,0,0,1,.73,1.816A2.439,2.439,0,0,1,832.609,7619.61Zm-2.279-2.921h-1.316v2.2h1.316a1.045,1.045,0,0,0,.808-.285,1.1,1.1,0,0,0,.262-.774Q831.4,7616.689,830.329,7616.689Z" transform="translate(-809.666 -7599.051)" fill="#fff"/>
</svg>
