<svg xmlns="http://www.w3.org/2000/svg" width="40" height="40" viewBox="0 0 40 40">
  <g id="airport-ic" transform="translate(-10.783 -40.822)">
    <g id="Ellipse_31" data-name="Ellipse 31" transform="translate(10.783 40.822)" fill="#ff8b00" stroke="rgba(255,39,0,0.1)" stroke-width="4">
      <circle cx="20" cy="20" r="20" stroke="none"/>
      <circle cx="20" cy="20" r="18" fill="none"/>
    </g>
    <g id="aeroplane" transform="translate(30.769 47.519) rotate(45)">
      <g id="Group_1314" data-name="Group 1314" transform="translate(0.021)">
        <path id="Path_1000" data-name="Path 1000" d="M18.242,12.97,10.983,5.711V2.492a3.553,3.553,0,0,0-.335-1.5L10.483.681A1.174,1.174,0,0,0,8.36.663l-.182.348a3.537,3.537,0,0,0-.327,1.481V5.711L.594,12.968a1.943,1.943,0,0,0-.573,1.384v.918a.391.391,0,0,0,.6.329L8,10.87c.073,1.185.171,2.174.292,3.377l.124,1.233L5.678,17.291a.393.393,0,0,0-.176.327V18.4a.392.392,0,0,0,.476.383l3.439-.765,3.439.765a.39.39,0,0,0,.33-.077.4.4,0,0,0,.146-.306v-.783a.389.389,0,0,0-.176-.327l-2.741-1.809.124-1.237c.121-1.2.219-2.19.292-3.375L18.21,15.6a.392.392,0,0,0,.6-.329v-.918A1.941,1.941,0,0,0,18.242,12.97Z" transform="translate(-0.021 0)" fill="#fff"/>
      </g>
    </g>
  </g>
</svg>
