<svg xmlns="http://www.w3.org/2000/svg" width="28" height="28" viewBox="0 0 28 28">
  <path id="circle-ic" d="M-766.911,8028.64h-1.671a12.4,12.4,0,0,0-9.758-9.764v-1.654a.189.189,0,0,0-.185-.2h-4.384a.2.2,0,0,0-.2.186v1.663a12.4,12.4,0,0,0-9.758,9.764h-1.661a.2.2,0,0,0-.2.185v4.4a.189.189,0,0,0,.186.194h1.67a12.4,12.4,0,0,0,9.758,9.764v1.654a.194.194,0,0,0,.185.194h4.384a.2.2,0,0,0,.2-.185v-1.663a12.4,12.4,0,0,0,9.758-9.764h1.662a.188.188,0,0,0,.194-.185v-4.4A.188.188,0,0,0-766.911,8028.64Zm-14.654-10.065h1.679v1.68h-1.679v-1.68Zm-11.5,13.293h-.115v-1.681h1.67v1.681h-1.555Zm13.178,11.612h-1.679v-1.68h1.679v1.68Zm1.546-1.84v-1.194a.188.188,0,0,0-.185-.194h-4.384a.2.2,0,0,0-.2.186v1.2a10.906,10.906,0,0,1-8.22-8.225h1.176a.188.188,0,0,0,.194-.185v-4.4a.188.188,0,0,0-.185-.194h-1.185a10.906,10.906,0,0,1,8.22-8.225v1.194a.194.194,0,0,0,.185.194h4.384a.2.2,0,0,0,.2-.186v-1.2a10.906,10.906,0,0,1,8.22,8.225h-1.175a.2.2,0,0,0-.2.185v4.4a.189.189,0,0,0,.186.194h1.184A10.906,10.906,0,0,1-778.34,8041.64Zm10.067-9.772h-1.67v-1.681h1.67Z" transform="translate(794.726 -8017.027)" fill="#fff"/>
</svg>
