<svg xmlns="http://www.w3.org/2000/svg" width="22.559" height="28" viewBox="0 0 22.559 28">
  <path id="ic-1" d="M-45.074-.3c-.058-.062-.118-.121-.18-.179l-1.4-1.4a2.512,2.512,0,0,0,.17-.891A2.529,2.529,0,0,0-49.015-5.3a2.529,2.529,0,0,0-2.526,2.526A2.529,2.529,0,0,0-49.015-.247a2.477,2.477,0,0,0,.778-.135l1.444,1.448a1.991,1.991,0,0,1-.089,2.814,1.991,1.991,0,0,1-2.725,0l-5.437-5.437a4.163,4.163,0,0,0-5.888.008,4.164,4.164,0,0,0-.011,5.869l9.789,9.785a1.991,1.991,0,0,1-.089,2.814,1.991,1.991,0,0,1-2.725,0L-59.4,11.482a4.163,4.163,0,0,0-5.888.021,4.163,4.163,0,0,0,0,5.867l1.953,1.952a2.5,2.5,0,0,0-.159.853A2.529,2.529,0,0,0-60.973,22.7a2.529,2.529,0,0,0,2.526-2.526,2.528,2.528,0,0,0-2.526-2.525,2.494,2.494,0,0,0-.817.147l-1.967-1.966a1.991,1.991,0,0,1,.088-2.814,1.992,1.992,0,0,1,2.726,0l5.436,5.437a4.167,4.167,0,0,0,5.892-.082,4.167,4.167,0,0,0,.011-5.8l-9.789-9.788A1.992,1.992,0,0,1-59.3-.028a1.989,1.989,0,0,1,2.725,0l5.437,5.437a4.165,4.165,0,0,0,5.888.179A4.165,4.165,0,0,0-45.074-.3ZM-49.6-2.773a.589.589,0,0,1,.588-.588.589.589,0,0,1,.588.588.589.589,0,0,1-.588.589A.589.589,0,0,1-49.6-2.773Zm-11.37,22.36a.589.589,0,0,1,.589.588.589.589,0,0,1-.589.589.589.589,0,0,1-.588-.589A.589.589,0,0,1-60.973,19.587Z" transform="translate(66.502 5.299)" fill="#ff8b00"/>
</svg>
