<svg xmlns="http://www.w3.org/2000/svg" width="28" height="28" viewBox="0 0 28 28">
  <g id="draw-geo" transform="translate(-77.474 -32)">
    <path id="Path_956" data-name="Path 956" d="M-30.269,64.353a.216.216,0,0,0,.219-.219v-4.96a.216.216,0,0,0-.219-.219h-4.952a.216.216,0,0,0-.219.219v1.437H-52.66V59.174a.216.216,0,0,0-.219-.219h-4.952a.216.216,0,0,0-.219.219v4.96a.216.216,0,0,0,.219.219H-56.2v17.2h-1.627a.216.216,0,0,0-.219.219v4.96a.216.216,0,0,0,.219.219h4.952a.216.216,0,0,0,.219-.219V85.15h17.22v1.586a.216.216,0,0,0,.219.219h4.952a.216.216,0,0,0,.219-.219v-4.96a.216.216,0,0,0-.219-.219H-31.7v-17.2ZM-31.8,60.708V62.6h-1.89V60.708h1.89ZM-56.3,62.6V60.708h1.89V62.6H-56.3Zm1.89,22.6H-56.3V83.309h1.89V85.2Zm22.61,0h-1.89V83.309h1.89V85.2Zm-1.654-3.645h-1.767a.216.216,0,0,0-.219.219V83.4H-52.66V81.776a.216.216,0,0,0-.219-.219h-1.575v-17.2h1.575a.216.216,0,0,0,.219-.219v-1.77h17.22v1.77a.216.216,0,0,0,.219.219h1.767Z" transform="translate(135.524 -26.955)" fill="#ff8b00"/>
    <g id="Group_1222" data-name="Group 1222" transform="translate(669.503 -311.337)">
      <path id="Path_960" data-name="Path 960" d="M-572.737,353.858l-1.812-1.811a.28.28,0,0,0-.4,0h0l-2.905,2.9.4.4,2.706-2.706,1.415,1.414-.366.366-.971-.973-.42.421.971.972-.431.432-.618-.618-.424.421.619.618-.432.432-.971-.972-.422.421.972.972-.214.214.4.4,2.905-2.9A.282.282,0,0,0-572.737,353.858Z" fill="#ff8b00"/>
      <path id="Path_961" data-name="Path 961" d="M-578.816,359.54l-.972-.972-.421.421.972.972-.432.432-.618-.619-.421.422.618.618-.432.432-.972-.972-.421.421.971.972-.365.366-1.413-1.416,2.706-2.706-.4-.4-2.906,2.9a.281.281,0,0,0,0,.4h0l1.812,1.811a.281.281,0,0,0,.4,0h0l2.9-2.9-.4-.4Z" fill="#ff8b00"/>
      <path id="Path_962" data-name="Path 962" d="M-580.89,352.708a.653.653,0,0,0-.921.008l-.839.84a.648.648,0,0,0-.008.918h0l7.173,7.174c.061.061.206.2,1.944.5a.28.28,0,0,0,.324-.227.27.27,0,0,0,0-.1c-.3-1.738-.439-1.881-.5-1.943Zm-.92,1.819-.45-.449a.089.089,0,0,1,.009-.125l.838-.839a.09.09,0,0,1,.125-.008l.45.449Zm7.375,6.88a5.085,5.085,0,0,1-.655-.17l-.177-.495.5.177-.178-.5.5.178-.178-.5.5.173a5.1,5.1,0,0,1,.169.654Z" fill="#ff8b00"/>
    </g>
  </g>
</svg>
