<svg xmlns="http://www.w3.org/2000/svg" width="21.645" height="28" viewBox="0 0 21.645 28">
  <g id="driver" transform="translate(-28.742 -22.5)">
    <path id="Path_933" data-name="Path 933" d="M39.564,22.5A10.834,10.834,0,0,0,28.742,33.322c0,8.831,9.776,16.631,10.193,16.959a1.017,1.017,0,0,0,1.259,0c.416-.328,10.193-8.129,10.193-16.959A10.834,10.834,0,0,0,39.564,22.5Zm0,25.651c-2.11-1.842-8.786-8.195-8.786-14.828a8.786,8.786,0,1,1,17.572,0C48.35,39.956,41.674,46.309,39.564,48.151Z" transform="translate(0 0)" fill="#ff8b00"/>
    <path id="Path_947" data-name="Path 947" d="M54.134,56.6A5.734,5.734,0,1,0,59.9,62.334,5.74,5.74,0,0,0,54.134,56.6ZM50.2,60.366a4.411,4.411,0,0,1,7.87,0,.462.462,0,0,1-.562.646,12.143,12.143,0,0,0-6.745,0,.5.5,0,0,1-.506-.141A.472.472,0,0,1,50.2,60.366Zm2.7,5.987a.567.567,0,0,1-.478.056,4.374,4.374,0,0,1-2.5-2.726.452.452,0,0,1,.281-.562l.506-.169a.462.462,0,0,1,.562.253,3.128,3.128,0,0,0,1.49,1.518.508.508,0,0,1,.281.393l.056.871A.36.36,0,0,1,52.9,66.353Zm1.237-2.726a.927.927,0,1,1,.927-.927A.936.936,0,0,1,54.134,63.626Zm1.686,2.782a.484.484,0,0,1-.478-.056.456.456,0,0,1-.2-.393l.056-.871a.423.423,0,0,1,.281-.393,3.128,3.128,0,0,0,1.49-1.518.464.464,0,0,1,.422-.253.253.253,0,0,1,.141.028c.169.056.337.112.478.169a.452.452,0,0,1,.281.562A4.258,4.258,0,0,1,55.82,66.409Z" transform="translate(-14.733 -28.951)" fill="#ff8b00"/>
  </g>
</svg>
