<svg xmlns="http://www.w3.org/2000/svg" width="21.645" height="28" viewBox="0 0 21.645 28">
  <g id="fuel-station" transform="translate(-28.742 -22.5)">
    <path id="Path_933" data-name="Path 933" d="M39.564,22.5A10.834,10.834,0,0,0,28.742,33.322c0,8.831,9.776,16.631,10.193,16.959a1.017,1.017,0,0,0,1.259,0c.416-.328,10.193-8.129,10.193-16.959A10.834,10.834,0,0,0,39.564,22.5Zm0,25.651c-2.11-1.842-8.786-8.195-8.786-14.828a8.786,8.786,0,1,1,17.572,0C48.35,39.956,41.674,46.309,39.564,48.151Z" transform="translate(0 0)" fill="#ff8b00"/>
    <path id="Path_948" data-name="Path 948" d="M-580.594,323.7a3.153,3.153,0,0,0,3.153,3.153,3.151,3.151,0,0,0,3.153-3.153c0-1.747-3.153-5.425-3.153-5.425S-580.594,321.954-580.594,323.7Z" transform="translate(617.005 -289.354)" fill="#ff8b00"/>
  </g>
</svg>
