<svg xmlns="http://www.w3.org/2000/svg" width="21.645" height="28" viewBox="0 0 21.645 28">
  <g id="garage" transform="translate(-28.742 -22.5)">
    <path id="Path_933" data-name="Path 933" d="M39.564,22.5A10.834,10.834,0,0,0,28.742,33.322c0,8.831,9.776,16.631,10.193,16.959a1.017,1.017,0,0,0,1.259,0c.416-.328,10.193-8.129,10.193-16.959A10.834,10.834,0,0,0,39.564,22.5Zm0,25.651c-2.11-1.842-8.786-8.195-8.786-14.828a8.786,8.786,0,1,1,17.572,0C48.35,39.956,41.674,46.309,39.564,48.151Z" transform="translate(0 0)" fill="#ff8b00"/>
    <path id="Path_936" data-name="Path 936" d="M49.119,5.686,44.494,2.069a.322.322,0,0,0-.4,0L39.471,5.686a.322.322,0,0,0,.2.576h.516v5.185a.322.322,0,0,0,.322.322h7.574a.322.322,0,0,0,.322-.322V6.262h.516A.322.322,0,0,0,49.119,5.686Z" transform="translate(-4.731 25.443)" fill="#ff8b00"/>
  </g>
</svg>
