<svg xmlns="http://www.w3.org/2000/svg" width="28" height="28" viewBox="0 0 28 28">
  <path id="ic-4" d="M-30.269,64.353a.216.216,0,0,0,.219-.219v-4.96a.216.216,0,0,0-.219-.219h-4.952a.216.216,0,0,0-.219.219v1.437H-52.66V59.174a.216.216,0,0,0-.219-.219h-4.952a.216.216,0,0,0-.219.219v4.96a.216.216,0,0,0,.219.219H-56.2v17.2h-1.627a.216.216,0,0,0-.219.219v4.96a.216.216,0,0,0,.219.219h4.952a.216.216,0,0,0,.219-.219V85.15h17.22v1.586a.216.216,0,0,0,.219.219h4.952a.216.216,0,0,0,.219-.219v-4.96a.216.216,0,0,0-.219-.219H-31.7v-17.2ZM-31.8,60.708V62.6h-1.89V60.708h1.89ZM-56.3,62.6V60.708h1.89V62.6H-56.3Zm1.89,22.6H-56.3V83.309h1.89V85.2Zm22.61,0h-1.89V83.309h1.89V85.2Zm-1.654-3.645h-1.767a.216.216,0,0,0-.219.219V83.4H-52.66V81.776a.216.216,0,0,0-.219-.219h-1.575v-17.2h1.575a.216.216,0,0,0,.219-.219v-1.77h17.22v1.77a.216.216,0,0,0,.219.219h1.767Z" transform="translate(58.05 -58.955)" fill="#fff"/>
</svg>
