<svg xmlns="http://www.w3.org/2000/svg" width="21.645" height="28" viewBox="0 0 21.645 28">
  <g id="hospital-ic" transform="translate(-28.742 -22.5)">
    <path id="Path_933" data-name="Path 933" d="M39.564,22.5A10.834,10.834,0,0,0,28.742,33.322c0,8.831,9.776,16.631,10.193,16.959a1.017,1.017,0,0,0,1.259,0c.416-.328,10.193-8.129,10.193-16.959A10.834,10.834,0,0,0,39.564,22.5Zm0,25.651c-2.11-1.842-8.786-8.195-8.786-14.828a8.786,8.786,0,1,1,17.572,0C48.35,39.956,41.674,46.309,39.564,48.151Z" transform="translate(0 0)" fill="#ff8b00"/>
    <g id="noun_crescent_3646540" transform="translate(35.315 29.55)">
      <path id="Path_939" data-name="Path 939" d="M3.55.368A.27.27,0,0,0,3.228.01,4.391,4.391,0,1,0,8.479,5.844a.27.27,0,0,0-.323-.359A3.853,3.853,0,0,1,3.55.368Z" transform="translate(0 0)" fill="#ff8b00"/>
    </g>
  </g>
</svg>
