<svg xmlns="http://www.w3.org/2000/svg" width="40" height="40" viewBox="0 0 40 40">
  <g id="house-ic" transform="translate(-10.783 -40.822)">
    <g id="Ellipse_31" data-name="Ellipse 31" transform="translate(10.783 40.822)" fill="#ff8b00" stroke="rgba(255,39,0,0.1)" stroke-width="4">
      <circle cx="20" cy="20" r="20" stroke="none"/>
      <circle cx="20" cy="20" r="18" fill="none"/>
    </g>
    <path id="home" d="M18.3,8.181h0L10.627.507a1.731,1.731,0,0,0-2.449,0L.51,8.176.5,8.183a1.731,1.731,0,0,0,1.152,2.95l.053,0h.306v5.646A2.029,2.029,0,0,0,4.04,18.809h3a.551.551,0,0,0,.551-.551V13.831a.926.926,0,0,1,.925-.925h1.77a.926.926,0,0,1,.925.925v4.427a.551.551,0,0,0,.551.551h3a2.029,2.029,0,0,0,2.027-2.026V11.136h.284A1.732,1.732,0,0,0,18.3,8.181Zm0,0" transform="translate(21.783 51.822)" fill="#fff"/>
  </g>
</svg>
