<svg xmlns="http://www.w3.org/2000/svg" width="24.398" height="28" viewBox="0 0 24.398 28">
  <g id="kml-ic" transform="translate(-10.79 -5)">
    <g id="Group_1221" data-name="Group 1221" transform="translate(10.79 5)">
      <path id="Path_950" data-name="Path 950" d="M34.5,11.328l-5-5.472A2.632,2.632,0,0,0,27.559,5H13.416A2.629,2.629,0,0,0,10.79,7.626V30.374A2.629,2.629,0,0,0,13.416,33H32.562a2.629,2.629,0,0,0,2.626-2.626V13.089a2.613,2.613,0,0,0-.688-1.761Zm-1.658.781H29.619a.877.877,0,0,1-.874-.887v-3.6Zm-.28,19.143H13.416a.877.877,0,0,1-.877-.877V7.626a.877.877,0,0,1,.877-.877H26.993v4.474a2.629,2.629,0,0,0,2.626,2.626h3.82V30.374A.877.877,0,0,1,32.562,31.252Z" transform="translate(-10.79 -5)" fill="#ff8b00"/>
      <path id="Union_2" data-name="Union 2" d="M-6953.169-3301.9q-.451,0-.452-.406v-4.29q0-.406.452-.406h.527c.3,0,.452.135.452.406v3.614h1.883c.3,0,.452.135.414.406v.27q0,.406-.451.406Zm-10.093,0a.515.515,0,0,1-.527-.271l-1.017-1.79h-.565v1.655q0,.406-.452.406h-.527q-.453,0-.453-.406v-4.29q0-.406.453-.406h.527q.452,0,.452.406v1.553h.565l1.017-1.688a.667.667,0,0,1,.527-.271h.527c.339,0,.452.2.3.473l-1.243,1.959,1.318,2.2c.188.27.037.473-.3.473Zm7.231-.034a.411.411,0,0,1-.453-.371l-.151-1.892a5.721,5.721,0,0,1,0-.845s-.188.541-.3.845l-.452,1.149a.458.458,0,0,1-.49.3h-.452a.487.487,0,0,1-.49-.3l-.452-1.149c-.113-.3-.3-.845-.3-.845a5.574,5.574,0,0,1,0,.845l-.15,1.892a.411.411,0,0,1-.453.371h-.526c-.3,0-.453-.135-.415-.405l.339-4.29a.411.411,0,0,1,.453-.372h.715c.264,0,.414.068.49.3l.715,1.824a8.626,8.626,0,0,1,.3.845s.188-.507.3-.845l.715-1.824a.457.457,0,0,1,.49-.3h.715c.3,0,.453.135.415.372l.376,4.29c.039.271-.112.405-.414.405Z" transform="translate(6970.542 3319.903)" fill="#ff8b00"/>
    </g>
  </g>
</svg>
