<svg xmlns="http://www.w3.org/2000/svg" width="28" height="28" viewBox="0 0 28 28">
  <g id="ic-2" transform="translate(41.086 3.328)">
    <path id="Path_922" data-name="Path 922" d="M-19.325,9.912a6.241,6.241,0,0,0-6.227,6.231c0,2.019,1.5,3.92,2.881,5.511a32.46,32.46,0,0,0,2.748,2.791.914.914,0,0,0,1.206,0,32.715,32.715,0,0,0,2.745-2.791c1.378-1.591,2.886-3.493,2.886-5.511A6.25,6.25,0,0,0-19.325,9.912Zm4.412,6.23c0,.92-1.157,2.831-2.442,4.312a19.322,19.322,0,0,1-1.97,2,20.048,20.048,0,0,1-1.97-2c-1.285-1.481-2.431-3.392-2.431-4.312a4.388,4.388,0,0,1,4.374-4.4h.027a4.392,4.392,0,0,1,4.412,4.374Z" fill="#fff"/>
    <path id="Path_923" data-name="Path 923" d="M-18.895,17.42a1.2,1.2,0,0,1-1.2-1.186v0a1.173,1.173,0,0,1,1.15-1.2h.035v0a1.193,1.193,0,0,1,1.2,1.184A1.194,1.194,0,0,1-18.895,17.42Z" transform="translate(-0.416 -0.416)" fill="#fff"/>
    <path id="Path_924" data-name="Path 924" d="M-13.088,6.316l0-8.711a.934.934,0,0,0-.273-.66.932.932,0,0,0-.66-.273H-40.153a.933.933,0,0,0-.933.933V23.739a.933.933,0,0,0,.933.933h8.194a.932.932,0,0,0,.933-.933V7.249h17A.933.933,0,0,0-13.088,6.316Zm-1.865-.933h-3.013V2.571a.933.933,0,0,0-.933-.933.933.933,0,0,0-.933.933V5.383H-21.7V2.571a.933.933,0,0,0-.932-.933.933.933,0,0,0-.933.933V5.383h-2.8V2.571a.933.933,0,0,0-.933-.933.933.933,0,0,0-.932.933V5.383h-2.8V2.571a.933.933,0,0,0-.933-.933.933.933,0,0,0-.932.933v2.8h-1.866a.933.933,0,0,0-.933.933.933.933,0,0,0,.933.933h1.866v2.8h-1.866a.933.933,0,0,0-.933.933.933.933,0,0,0,.933.933h1.866v2.8h-1.866a.933.933,0,0,0-.933.933.933.933,0,0,0,.933.933h1.866v1.866h-1.866a.933.933,0,0,0-.933.932.933.933,0,0,0,.933.933h1.866v2.512H-39.22V-1.462h24.268Z" fill="#fff"/>
  </g>
</svg>
