<svg xmlns="http://www.w3.org/2000/svg" width="21.645" height="28" viewBox="0 0 21.645 28">
  <g id="nav" transform="translate(-28.742 -22.5)">
    <path id="Path_933" data-name="Path 933" d="M39.564,22.5A10.834,10.834,0,0,0,28.742,33.322c0,8.831,9.776,16.631,10.193,16.959a1.017,1.017,0,0,0,1.259,0c.416-.328,10.193-8.129,10.193-16.959A10.834,10.834,0,0,0,39.564,22.5Zm0,25.651c-2.11-1.842-8.786-8.195-8.786-14.828a8.786,8.786,0,1,1,17.572,0C48.35,39.956,41.674,46.309,39.564,48.151Z" transform="translate(0 0)" fill="#ff8b00"/>
    <path id="Path_935" data-name="Path 935" d="M72.769,47.067a.6.6,0,0,0-.149-.191.743.743,0,0,0-.309-.167.687.687,0,0,0-.382.012l-.005,0-.044.018-.562.223-1.046.416-1.343.534-1.453.578-1.374.546-1.115.444-.673.268-.111.044a.834.834,0,0,0-.289.17.707.707,0,0,0-.214.5.737.737,0,0,0,.2.5.7.7,0,0,0,.34.2c.25.058.5.105.753.157l1.468.308,1.183.248.022,0c.013.063.026.126.039.188.059.284.119.567.178.852q.108.519.217,1.038c.063.3.125.6.188.9.028.13.052.261.081.392,0,.018.006.036.01.054a.716.716,0,0,0,.331.44.736.736,0,0,0,.542.073.769.769,0,0,0,.152-.061.363.363,0,0,0,.043-.024.727.727,0,0,0,.235-.243,1.237,1.237,0,0,0,.067-.154l.048-.121c.091-.23.183-.46.275-.69l.45-1.13.549-1.38.576-1.448q.266-.667.531-1.336l.411-1.033.216-.545.015-.038a.687.687,0,0,0,.034-.2A.707.707,0,0,0,72.769,47.067Z" transform="translate(-28.712 -17.764)" fill="#ff8b00"/>
  </g>
</svg>
