<svg xmlns="http://www.w3.org/2000/svg" width="21.645" height="28" viewBox="0 0 21.645 28">
  <g id="nearest-asset" transform="translate(-28.742 -22.5)">
    <path id="Path_933" data-name="Path 933" d="M39.564,22.5A10.834,10.834,0,0,0,28.742,33.322c0,8.831,9.776,16.631,10.193,16.959a1.017,1.017,0,0,0,1.259,0c.416-.328,10.193-8.129,10.193-16.959A10.834,10.834,0,0,0,39.564,22.5Zm0,25.651c-2.11-1.842-8.786-8.195-8.786-14.828a8.786,8.786,0,1,1,17.572,0C48.35,39.956,41.674,46.309,39.564,48.151Z" transform="translate(0 0)" fill="#ff8b00"/>
    <g id="noun_traffic_jam_1337068" data-name="noun_traffic jam_1337068" transform="translate(28.312 -1.151)">
      <path id="Path_937" data-name="Path 937" d="M13.735,32.957l.549-.258a.07.07,0,0,0,.011-.008.317.317,0,0,0-.155-.594h-.006l-.553.046a.3.3,0,0,0-.249.179l-.089.2-.13-.3c-.814-1.889-.909-1.944-3.385-1.946h0c-2.476,0-2.57.057-3.385,1.946l-.129.3-.089-.2a.3.3,0,0,0-.249-.179L5.324,32.1H5.318a.317.317,0,0,0-.155.594.07.07,0,0,0,.011.008l.549.258a1.126,1.126,0,0,0-.453.541,3.572,3.572,0,0,0,0,2.237.922.922,0,0,0,.3.4v.72a.239.239,0,0,0,.238.238H7.026a.239.239,0,0,0,.238-.238v-.43h4.929v.43a.239.239,0,0,0,.238.238h1.218a.239.239,0,0,0,.238-.238v-.72a.923.923,0,0,0,.3-.4,3.572,3.572,0,0,0,0-2.237A1.126,1.126,0,0,0,13.735,32.957ZM7.342,34.816c-.027,0-.481.02-.889.02a4.954,4.954,0,0,1-.535-.02.294.294,0,0,1-.233-.138c-.1-.172.014-.443.075-.588a.509.509,0,0,1,.373-.336,2.292,2.292,0,0,1,1.326.19.492.492,0,0,1,.32.46A.412.412,0,0,1,7.342,34.816Zm-.734-2.093.14-.324c.369-.857.555-1.286.889-1.478a5.066,5.066,0,0,1,2.092-.2,5.065,5.065,0,0,1,2.092.2c.335.191.52.621.889,1.478l.14.324A59.123,59.123,0,0,0,6.607,32.722Zm5.07,1.681a.492.492,0,0,1,.32-.46,2.292,2.292,0,0,1,1.326-.19.509.509,0,0,1,.373.336c.061.145.175.416.075.588a.294.294,0,0,1-.233.138,4.954,4.954,0,0,1-.535.02c-.408,0-.862-.019-.889-.02A.412.412,0,0,1,11.678,34.4Z" transform="translate(0 0)" fill="#ff8b00"/>
      <g id="Group_388" data-name="Group 388" transform="translate(12.069 30.279)">
        <g id="Group_387" data-name="Group 387" transform="translate(0 0)">
          <path id="Path_938" data-name="Path 938" d="M50.624,32.957l.549-.258a.07.07,0,0,0,.011-.008.317.317,0,0,0-.155-.594h-.006l-.553.046a.3.3,0,0,0-.249.179l-.089.2-.13-.3c-.814-1.889-.909-1.944-3.385-1.946h0c-.261,0-.494,0-.706,0a1.449,1.449,0,0,1,.537.435h.17a5.065,5.065,0,0,1,2.092.2c.335.191.52.621.889,1.478l.14.324c-.421-.022-.842-.037-1.263-.05a.562.562,0,0,1-.206.221l-.041.025-.212.1a1.163,1.163,0,0,1,.243.4,3.819,3.819,0,0,1,0,2.39,1.108,1.108,0,0,1-.288.434v.18h1.11v.43a.239.239,0,0,0,.238.238h1.218a.239.239,0,0,0,.238-.238v-.72a.923.923,0,0,0,.3-.4,3.572,3.572,0,0,0,0-2.237A1.127,1.127,0,0,0,50.624,32.957Zm.038,1.721a.294.294,0,0,1-.234.138,4.952,4.952,0,0,1-.535.02c-.408,0-.862-.019-.889-.02a.412.412,0,0,1-.438-.412.492.492,0,0,1,.32-.46,2.292,2.292,0,0,1,1.326-.19.509.509,0,0,1,.373.336C50.648,34.235,50.761,34.505,50.662,34.677Z" transform="translate(-45.911 -30.279)" fill="#ff8b00"/>
        </g>
      </g>
    </g>
  </g>
</svg>
