<svg xmlns="http://www.w3.org/2000/svg" width="21.644" height="28" viewBox="0 0 21.644 28">
  <g id="new-poi" transform="translate(-28.742 -22.5)">
    <path id="Path_933" data-name="Path 933" d="M39.564,22.5A10.834,10.834,0,0,0,28.742,33.322c0,8.831,9.776,16.631,10.193,16.959a1.017,1.017,0,0,0,1.259,0c.416-.328,10.193-8.129,10.193-16.959A10.834,10.834,0,0,0,39.564,22.5Zm0,25.651c-2.11-1.842-8.786-8.195-8.786-14.828a8.786,8.786,0,1,1,17.572,0C48.35,39.956,41.674,46.309,39.564,48.151Z" transform="translate(0 0)" fill="#ff8b00"/>
    <path id="Path_934" data-name="Path 934" d="M49.834,37.542a1.017,1.017,0,0,0-1.439,0l-2.122,2.122-2.122-2.122a1.017,1.017,0,0,0-1.439,1.439L44.834,41.1l-2.122,2.122a1.017,1.017,0,1,0,1.439,1.439l2.122-2.122L48.4,44.663a1.017,1.017,0,0,0,1.439-1.439L47.712,41.1l2.122-2.122A1.017,1.017,0,0,0,49.834,37.542Z" transform="translate(35.908 -27.917) rotate(45)" fill="#ff8b00"/>
  </g>
</svg>
