<svg xmlns="http://www.w3.org/2000/svg" width="135.605" height="144.856" viewBox="0 0 135.605 144.856">
  <g id="no-data-sticker" transform="translate(-8.33 -16.67)">
    <path id="Path_1031" data-name="Path 1031" d="M142.568,47.846l-14.9-24.407c-2.717-4.068-6.785-6.769-11.536-6.769H36.138c-4.751,0-8.819,2.7-11.536,6.769L9.7,47.846a16.132,16.132,0,0,0-1.367,6.1v71.187A13.6,13.6,0,0,0,21.9,138.7H43.395a32.738,32.738,0,1,1,65.475,0h21.494a13.6,13.6,0,0,0,13.57-13.57V53.947A16.132,16.132,0,0,0,142.568,47.846Zm-46.1,29.841H55.793A6.414,6.414,0,0,1,49.008,70.9a6.414,6.414,0,0,1,6.785-6.785H96.471a6.414,6.414,0,0,1,6.785,6.785A6.414,6.414,0,0,1,96.471,77.687ZM23.251,50.563l11.52-20.339h82.723l11.52,20.339Z" transform="translate(0 0)" fill="#0f224b"/>
    <g id="Group_1432" data-name="Group 1432" transform="translate(53.304 115.871)">
      <path id="Path_1032" data-name="Path 1032" d="M74.949,116.616A22.874,22.874,0,1,0,58.8,123.292,22.776,22.776,0,0,0,74.949,116.616ZM61.887,109.27a3.082,3.082,0,0,0-3.088-3.088,3.118,3.118,0,0,0-3.131,3.088A3.153,3.153,0,0,0,58.8,112.4,3.117,3.117,0,0,0,61.887,109.27ZM58.8,103.053a2.177,2.177,0,0,1-2.086-2.088L55.668,91.66A3.182,3.182,0,0,1,58.8,88.529c1.586,0,3.3,1.5,3.088,3.131l-1,9.306A2.177,2.177,0,0,1,58.8,103.053Z" transform="translate(-35.97 -77.637)" fill="#ff8b00" fill-rule="evenodd"/>
    </g>
  </g>
</svg>
