<svg xmlns="http://www.w3.org/2000/svg" width="40" height="40" viewBox="0 0 40 40">
  <g id="online-ic" transform="translate(0.012 0)">
    <circle id="Ellipse_14" data-name="Ellipse 14" cx="20" cy="20" r="20" transform="translate(-0.012 0)" fill="rgba(255,255,255,0.2)"/>
    <path id="Path_1054" data-name="Path 1054" d="M76.148,0a10,10,0,1,0,10,10,10.012,10.012,0,0,0-10-10m4.981,7.774-6,6a1.092,1.092,0,0,1-.773.319c-.018,0-.038,0-.058,0a1.093,1.093,0,0,1-.791-.4l-2.422-3a1.091,1.091,0,0,1,1.7-1.371l1.66,2.054,5.139-5.139a1.091,1.091,0,0,1,1.543,1.543" transform="translate(-56.161 10)" fill="#fff" fill-rule="evenodd"/>
  </g>
</svg>
