<svg xmlns="http://www.w3.org/2000/svg" width="21.644" height="28" viewBox="0 0 21.644 28">
  <g id="ic-5" transform="translate(147.223 -25.145)">
    <path id="Path_917" data-name="Path 917" d="M-136.4,25.145a10.834,10.834,0,0,0-10.823,10.822c0,8.83,9.776,16.631,10.192,16.959a1.016,1.016,0,0,0,1.26,0c.416-.328,10.192-8.129,10.192-16.959A10.833,10.833,0,0,0-136.4,25.145Zm0,25.65c-2.11-1.841-8.786-8.195-8.786-14.828a8.786,8.786,0,0,1,8.782-8.789,8.786,8.786,0,0,1,8.789,8.782v.007C-127.615,42.6-134.291,48.954-136.4,50.795Z" fill="#fff"/>
    <path id="Path_918" data-name="Path 918" d="M-132.379,35.495h-3v-3a1.018,1.018,0,0,0-1.018-1.018,1.018,1.018,0,0,0-1.018,1.018v3h-3.006a1.018,1.018,0,0,0-1.018,1.018,1.019,1.019,0,0,0,1.018,1.019h3v3.007a1.018,1.018,0,0,0,1.018,1.018,1.018,1.018,0,0,0,1.018-1.018V37.531h3a1.019,1.019,0,0,0,1.019-1.019,1.019,1.019,0,0,0-1.019-1.018h0Z" fill="#fff"/>
  </g>
</svg>
