<svg xmlns="http://www.w3.org/2000/svg" width="21.645" height="28" viewBox="0 0 21.645 28">
  <g id="search-asset" transform="translate(-28.742 -22.5)">
    <path id="Path_933" data-name="Path 933" d="M39.564,22.5A10.834,10.834,0,0,0,28.742,33.322c0,8.831,9.776,16.631,10.193,16.959a1.017,1.017,0,0,0,1.259,0c.416-.328,10.193-8.129,10.193-16.959A10.834,10.834,0,0,0,39.564,22.5Zm0,25.651c-2.11-1.842-8.786-8.195-8.786-14.828a8.786,8.786,0,1,1,17.572,0C48.35,39.956,41.674,46.309,39.564,48.151Z" transform="translate(0 0)" fill="#ff8b00"/>
    <g id="noun_traffic_jam_1337068" data-name="noun_traffic jam_1337068" transform="translate(28.312 -0.151)">
      <path id="Path_937" data-name="Path 937" d="M14.428,33.169l.592-.278a.075.075,0,0,0,.012-.009.342.342,0,0,0-.167-.641h-.006l-.6.049a.32.32,0,0,0-.268.193l-.1.218-.14-.323c-.879-2.039-.981-2.1-3.653-2.1h0c-2.672,0-2.774.061-3.653,2.1l-.14.323-.1-.218a.32.32,0,0,0-.268-.193l-.6-.049H5.343a.342.342,0,0,0-.167.641.075.075,0,0,0,.012.009l.592.278a1.216,1.216,0,0,0-.489.584,3.855,3.855,0,0,0,0,2.414,1,1,0,0,0,.324.433v.777a.258.258,0,0,0,.257.257H7.187a.258.258,0,0,0,.257-.257v-.465h5.319v.465a.258.258,0,0,0,.257.257h1.314a.258.258,0,0,0,.257-.257V36.6a1,1,0,0,0,.324-.433,3.855,3.855,0,0,0,0-2.414A1.216,1.216,0,0,0,14.428,33.169Zm-6.9,2.006c-.029,0-.519.021-.959.021a5.346,5.346,0,0,1-.577-.022.317.317,0,0,1-.252-.149c-.107-.186.015-.478.081-.635a.549.549,0,0,1,.4-.362,2.473,2.473,0,0,1,1.431.2.531.531,0,0,1,.346.5A.445.445,0,0,1,7.527,35.176Zm-.793-2.259.151-.35c.4-.924.6-1.388.96-1.595a5.468,5.468,0,0,1,2.258-.218,5.466,5.466,0,0,1,2.258.218c.361.206.561.67.96,1.595l.151.35A63.808,63.808,0,0,0,6.735,32.916Zm5.472,1.814a.531.531,0,0,1,.346-.5,2.473,2.473,0,0,1,1.431-.2.549.549,0,0,1,.4.362c.066.157.189.449.081.635a.317.317,0,0,1-.252.149,5.346,5.346,0,0,1-.577.022c-.441,0-.93-.02-.959-.021A.445.445,0,0,1,12.207,34.73Z" transform="translate(1 -1)" fill="#ff8b00"/>
    </g>
  </g>
</svg>
