<svg xmlns="http://www.w3.org/2000/svg" width="21.648" height="28" viewBox="0 0 21.648 28">
  <g id="search-address" transform="translate(123.13 6.438)">
    <path id="Path_926" data-name="Path 926" d="M-109.453,5.98a3.337,3.337,0,0,0-1.195-4.566,3.338,3.338,0,0,0-4.566,1.195,3.338,3.338,0,0,0,1.195,4.566,3.337,3.337,0,0,0,3.382-.007l1.522,1.522a.838.838,0,0,0,1.185,0,.838.838,0,0,0,0-1.185Zm-2.868-.024a1.651,1.651,0,0,1-1.649-1.649,1.649,1.649,0,0,1,1.649-1.649,1.648,1.648,0,0,1,1.648,1.649A1.648,1.648,0,0,1-112.321,5.956Z" fill="#ff8b00"/>
    <path id="Path_927" data-name="Path 927" d="M-112.306-6.438A10.835,10.835,0,0,0-123.13,4.385c0,8.831,9.778,16.633,10.193,16.957a1.016,1.016,0,0,0,1.262,0c.416-.328,10.193-8.129,10.193-16.957A10.835,10.835,0,0,0-112.306-6.438Zm0,25.653c-2.112-1.841-8.787-8.2-8.787-14.83a8.787,8.787,0,0,1,8.7-8.875,8.787,8.787,0,0,1,8.875,8.7q0,.089,0,.177C-103.52,11.018-110.2,17.374-112.306,19.215Z" fill="#ff8b00"/>
  </g>
</svg>
