<svg xmlns="http://www.w3.org/2000/svg" width="28" height="28" viewBox="0 0 28 28">
  <path id="shape-ic" d="M-782,7990.437a.213.213,0,0,0,.219-.21v-4.97a.213.213,0,0,0-.208-.22h-4.915a.219.219,0,0,0-.218.21v4.173l-5.543,5.9-11.775-8.073v-1.989a.213.213,0,0,0-.208-.22h-4.915a.219.219,0,0,0-.218.21v4.97a.213.213,0,0,0,.208.22h1.927l5.924,17.2h-1.218a.218.218,0,0,0-.218.21v4.969a.213.213,0,0,0,.208.22h4.915a.213.213,0,0,0,.218-.21V8011.1l12.72-7.085h3.1a.213.213,0,0,0,.219-.21v-4.97a.213.213,0,0,0-.208-.22h-1.621v-8.179Zm-3.388-3.65h1.873v1.9h-1.873Zm-22.659,0h1.873v1.9h-1.873Zm8.5,24.5h-1.873v-1.9h1.873Zm16.036-9.021h-1.873v-1.9h1.873Zm-1.779-3.65h-1.61a.219.219,0,0,0-.218.21v4.376l-10.7,5.957v-1.3a.212.212,0,0,0-.208-.22h-1.913l-5.925-17.2h1.2a.213.213,0,0,0,.219-.21v-.926l12.012,8.237,6.671-7.1h.463Z" transform="translate(809.784 -7985.037)" fill="#fff"/>
</svg>
