<svg xmlns="http://www.w3.org/2000/svg" width="28" height="28" viewBox="0 0 28 28">
  <g id="show-geo" transform="translate(-226.474 -32)">
    <path id="Path_954" data-name="Path 954" d="M-30.269,64.353a.216.216,0,0,0,.219-.219v-4.96a.216.216,0,0,0-.219-.219h-4.952a.216.216,0,0,0-.219.219v1.437H-52.66V59.174a.216.216,0,0,0-.219-.219h-4.952a.216.216,0,0,0-.219.219v4.96a.216.216,0,0,0,.219.219H-56.2v17.2h-1.627a.216.216,0,0,0-.219.219v4.96a.216.216,0,0,0,.219.219h4.952a.216.216,0,0,0,.219-.219V85.15h17.22v1.586a.216.216,0,0,0,.219.219h4.952a.216.216,0,0,0,.219-.219v-4.96a.216.216,0,0,0-.219-.219H-31.7v-17.2ZM-31.8,60.708V62.6h-1.89V60.708h1.89ZM-56.3,62.6V60.708h1.89V62.6H-56.3Zm1.89,22.6H-56.3V83.309h1.89V85.2Zm22.61,0h-1.89V83.309h1.89V85.2Zm-1.654-3.645h-1.767a.216.216,0,0,0-.219.219V83.4H-52.66V81.776a.216.216,0,0,0-.219-.219h-1.575v-17.2h1.575a.216.216,0,0,0,.219-.219v-1.77h17.22v1.77a.216.216,0,0,0,.219.219h1.767Z" transform="translate(284.524 -26.955)" fill="#ff8b00"/>
    <g id="ic_remove_red_eye_24px" transform="translate(233.2 36.722)">
      <path id="Path_955" data-name="Path 955" d="M7.274,4.5A6.746,6.746,0,0,0,1,8.778a6.74,6.74,0,0,0,12.549,0A6.746,6.746,0,0,0,7.274,4.5Zm0,7.13a2.852,2.852,0,1,1,2.852-2.852A2.853,2.853,0,0,1,7.274,11.63Zm0-4.563A1.711,1.711,0,1,0,8.986,8.778,1.709,1.709,0,0,0,7.274,7.067Z" fill="#ff8b00"/>
    </g>
  </g>
</svg>
