<svg xmlns="http://www.w3.org/2000/svg" width="21.644" height="28" viewBox="0 0 21.644 28">
  <g id="show-poi" transform="translate(-283.652 -138)">
    <g id="noun_cancel_location_710846" data-name="noun_cancel location_710846" transform="translate(254.91 115.5)">
      <path id="Path_933" data-name="Path 933" d="M39.564,22.5A10.834,10.834,0,0,0,28.742,33.322c0,8.831,9.776,16.631,10.193,16.959a1.017,1.017,0,0,0,1.259,0c.416-.328,10.193-8.129,10.193-16.959A10.834,10.834,0,0,0,39.564,22.5Zm0,25.651c-2.11-1.842-8.786-8.195-8.786-14.828a8.786,8.786,0,1,1,17.572,0C48.35,39.956,41.674,46.309,39.564,48.151Z" transform="translate(0 0)" fill="#ff8b00"/>
    </g>
    <g id="ic_remove_red_eye_24px" transform="translate(289.031 141.97)">
      <path id="Path_955" data-name="Path 955" d="M5.443,4.5A4.777,4.777,0,0,0,1,7.53a4.773,4.773,0,0,0,8.887,0A4.777,4.777,0,0,0,5.443,4.5Zm0,5.049a2.02,2.02,0,1,1,2.02-2.02A2.02,2.02,0,0,1,5.443,9.549Zm0-3.232A1.212,1.212,0,1,0,6.655,7.53,1.21,1.21,0,0,0,5.443,6.318Z" fill="#ff8b00"/>
    </g>
  </g>
</svg>
