<svg xmlns="http://www.w3.org/2000/svg" width="16.514" height="16.514" viewBox="0 0 16.514 16.514">
  <path id="stop-ic" d="M-781.549,8056.147l6.283-6.284a1.155,1.155,0,0,0,0-1.634,1.155,1.155,0,0,0-1.634,0l-6.284,6.283-6.283-6.283a1.156,1.156,0,0,0-1.635,0,1.156,1.156,0,0,0,0,1.634l6.284,6.284-6.284,6.283a1.156,1.156,0,0,0,0,1.634,1.154,1.154,0,0,0,.818.339,1.154,1.154,0,0,0,.818-.339l6.283-6.283,6.284,6.283a1.153,1.153,0,0,0,.818.339,1.152,1.152,0,0,0,.817-.339,1.155,1.155,0,0,0,0-1.634Z" transform="translate(791.441 -8047.89)" fill="#fff"/>
</svg>
