<svg xmlns="http://www.w3.org/2000/svg" width="40" height="40" viewBox="0 0 40 40">
  <g id="tabk-ic" transform="translate(0.012 0)">
    <circle id="Ellipse_14" data-name="Ellipse 14" cx="20" cy="20" r="20" transform="translate(-0.012 0)" fill="rgba(255,255,255,0.2)"/>
    <g id="noun_Oil_Tank_3916898" data-name="noun_Oil Tank_3916898" transform="translate(3.988 4)">
      <g id="Group_1455" data-name="Group 1455">
        <g id="Group_1454" data-name="Group 1454">
          <path id="Path_1037" data-name="Path 1037" d="M8.46,20.81A1.759,1.759,0,0,0,8,20.75a1.731,1.731,0,0,0-1.51.88,1.678,1.678,0,0,0-.24.87,1.75,1.75,0,0,0,3.5,0,1.678,1.678,0,0,0-.24-.87A1.713,1.713,0,0,0,8.46,20.81Z" fill="#fff"/>
          <path id="Path_1038" data-name="Path 1038" d="M25.46,20.81a1.759,1.759,0,0,0-.46-.06,1.731,1.731,0,0,0-1.51.88,1.678,1.678,0,0,0-.24.87,1.75,1.75,0,0,0,3.5,0,1.678,1.678,0,0,0-.24-.87A1.713,1.713,0,0,0,25.46,20.81Z" fill="#fff"/>
          <path id="Path_1039" data-name="Path 1039" d="M5.25,21.25h.88a1.537,1.537,0,0,1,.17-.19,1.462,1.462,0,0,1,.16-.19,2.782,2.782,0,0,1,.27-.21,1.127,1.127,0,0,1,.18-.12,1.54,1.54,0,0,1,.35-.15c.06-.02.11-.05.17-.07a2.356,2.356,0,0,1,1.14,0c.06.02.11.05.17.07a1.54,1.54,0,0,1,.35.15,1.876,1.876,0,0,1,.18.12,2.782,2.782,0,0,1,.27.21c.06.06.11.12.16.18s.12.13.17.2H23.13a1.537,1.537,0,0,1,.17-.19,1.462,1.462,0,0,1,.16-.19,2.782,2.782,0,0,1,.27-.21,1.127,1.127,0,0,1,.18-.12,1.54,1.54,0,0,1,.35-.15c.06-.02.11-.05.17-.07a2.356,2.356,0,0,1,1.14,0c.06.02.11.05.17.07a1.54,1.54,0,0,1,.35.15,1.876,1.876,0,0,1,.18.12,2.782,2.782,0,0,1,.27.21c.06.06.11.12.16.18s.12.13.17.2h.88v-1.5H5.25Z" fill="#fff"/>
          <path id="Path_1040" data-name="Path 1040" d="M10,19.25H22a5.75,5.75,0,0,0,0-11.5H10a5.75,5.75,0,0,0,0,11.5Zm6-7.9c.61.61,1.75,1.91,1.75,2.65a1.75,1.75,0,0,1-3.5,0C14.25,13.26,15.39,11.96,16,11.35Z" fill="#fff"/>
        </g>
      </g>
    </g>
  </g>
</svg>
