<svg xmlns="http://www.w3.org/2000/svg" width="24.398" height="28" viewBox="0 0 24.398 28">
  <g id="xls-ic" transform="translate(-10.79 -5)">
    <g id="Group_1221" data-name="Group 1221" transform="translate(10.79 5)">
      <path id="Path_950" data-name="Path 950" d="M34.5,11.328l-5-5.472A2.632,2.632,0,0,0,27.559,5H13.416A2.629,2.629,0,0,0,10.79,7.626V30.374A2.629,2.629,0,0,0,13.416,33H32.562a2.629,2.629,0,0,0,2.626-2.626V13.089a2.613,2.613,0,0,0-.688-1.761Zm-1.658.781H29.619a.877.877,0,0,1-.874-.887v-3.6Zm-.28,19.143H13.416a.877.877,0,0,1-.877-.877V7.626a.877.877,0,0,1,.877-.877H26.993v4.474a2.629,2.629,0,0,0,2.626,2.626h3.82V30.374A.877.877,0,0,1,32.562,31.252Z" transform="translate(-10.79 -5)" fill="#ff8b00"/>
      <path id="Path_951" data-name="Path 951" d="M27.835,46.185a.245.245,0,0,1,0-.218l1.1-2.109a.245.245,0,0,0-.213-.338h-.7a.245.245,0,0,0-.213.142l-.35.828-.162.385c-.054.132-.113.282-.169.446H27.1l-.2-.446c-.056-.135-.115-.262-.171-.385l-.389-.835a.228.228,0,0,0-.208-.135h-.762a.23.23,0,0,0-.2.34l1.11,2.053a.23.23,0,0,1,0,.218l-1.186,2.2a.23.23,0,0,0,.206.331h.713a.23.23,0,0,0,.208-.135l.421-.916c.056-.137.115-.272.174-.407s.115-.279.171-.436h.027c.073.157.142.3.2.436l.186.407.443.921a.23.23,0,0,0,.206.13h.762a.23.23,0,0,0,.2-.34Z" transform="translate(-19.378 -30.76)" fill="#ff8b00"/>
      <path id="Path_952" data-name="Path 952" d="M47.734,47.687H46.159a.23.23,0,0,1-.23-.23V43.75a.23.23,0,0,0-.23-.23H45a.23.23,0,0,0-.23.23v4.686a.23.23,0,0,0,.23.23h2.734a.23.23,0,0,0,.23-.23v-.519A.23.23,0,0,0,47.734,47.687Z" transform="translate(-33.75 -30.76)" fill="#ff8b00"/>
      <path id="Path_953" data-name="Path 953" d="M62.36,45.474l-.669-.267-.309-.13a1.69,1.69,0,0,1-.245-.127.576.576,0,0,1-.164-.149.34.34,0,0,1-.059-.2.392.392,0,0,1,.176-.343.813.813,0,0,1,.49-.122,1.431,1.431,0,0,1,.561.105,2.067,2.067,0,0,1,.336.184.245.245,0,0,0,.306-.049l.318-.394a.245.245,0,0,0-.037-.328,2.3,2.3,0,0,0-.6-.348,2.4,2.4,0,0,0-.887-.174,2.2,2.2,0,0,0-.735.12,1.791,1.791,0,0,0-.593.338,1.47,1.47,0,0,0-.38.49,1.391,1.391,0,0,0-.142.585,1.377,1.377,0,0,0,.086.507,1.311,1.311,0,0,0,.245.394,1.649,1.649,0,0,0,.331.3,1.886,1.886,0,0,0,.385.206l.669.284.306.13a1.316,1.316,0,0,1,.245.127.47.47,0,0,1,.149.154.385.385,0,0,1,.051.2.429.429,0,0,1-.176.363.884.884,0,0,1-.541.135,1.6,1.6,0,0,1-.659-.149,2.533,2.533,0,0,1-.448-.257.228.228,0,0,0-.306.042l-.375.451a.245.245,0,0,0,.039.333,2.572,2.572,0,0,0,.71.4,2.92,2.92,0,0,0,1.007.184,2.383,2.383,0,0,0,.821-.13,1.876,1.876,0,0,0,.6-.338,1.492,1.492,0,0,0,.38-.507,1.47,1.47,0,0,0,.13-.61A1.335,1.335,0,0,0,63.107,46a1.83,1.83,0,0,0-.747-.529Z" transform="translate(-44.664 -30.462)" fill="#ff8b00"/>
    </g>
  </g>
</svg>
