<svg id="number-ic" xmlns="http://www.w3.org/2000/svg" width="16" height="16" viewBox="0 0 16 16">
  <path id="Path_535" data-name="Path 535" d="M10,2a8,8,0,1,0,8,8A8.009,8.009,0,0,0,10,2Zm0,14.4A6.4,6.4,0,1,1,16.4,10,6.407,6.407,0,0,1,10,16.4Z" transform="translate(-2 -2)" fill="#556485"/>
  <path id="Path_539" data-name="Path 539" d="M46.163,38.739a.685.685,0,0,0,0-1.37h-.685v-.685a.685.685,0,1,0-1.37,0v.685h-1.37v-.685a.685.685,0,0,0-1.37,0v.685h-.685a.685.685,0,0,0,0,1.37h.685v1.37h-.685a.685.685,0,1,0,0,1.37h.685v.685a.685.685,0,0,0,1.37,0v-.685h1.37v.685a.685.685,0,1,0,1.37,0v-.685h.685a.685.685,0,1,0,0-1.37h-.685v-1.37Zm-2.054,1.37h-1.37v-1.37h1.37Z" transform="translate(-35.424 -31.424)" fill="#556485"/>
</svg>
