<svg xmlns="http://www.w3.org/2000/svg" version="1.1" xmlns:xlink="http://www.w3.org/1999/xlink" xmlns:svgjs="http://svgjs.com/svgjs" width="512" height="512" x="0" y="0" viewBox="0 0 550.801 550.801" style="enable-background:new 0 0 512 512" xml:space="preserve" class=""><g><path d="M488.426 197.019H475.2v-63.816c0-.401-.063-.799-.116-1.205-.021-2.534-.827-5.023-2.562-6.992L366.325 3.691c-.032-.031-.063-.042-.085-.073-.633-.707-1.371-1.298-2.151-1.804-.231-.158-.464-.287-.706-.422a11.325 11.325 0 0 0-2.131-.896c-.2-.053-.38-.135-.58-.19A10.939 10.939 0 0 0 358.193 0H97.2C85.282 0 75.6 9.693 75.6 21.601v175.413H62.377c-17.049 0-30.873 13.818-30.873 30.87v160.542c0 17.044 13.824 30.876 30.873 30.876h13.224V529.2c0 11.907 9.682 21.601 21.6 21.601h356.4c11.907 0 21.6-9.693 21.6-21.601V419.302h13.226c17.044 0 30.871-13.827 30.871-30.87V227.89c-.001-17.052-13.828-30.871-30.872-30.871zM97.2 21.605h250.193v110.51c0 5.967 4.841 10.8 10.8 10.8H453.6v54.108H97.2V21.605zM369.531 374.53h-32.058l-2.156-55.519c-.644-17.434-1.298-38.518-1.298-59.611h-.633c-4.514 18.516-10.547 39.166-16.137 56.162l-17.645 56.601h-25.618l-15.494-56.157c-4.725-16.996-9.671-37.658-13.123-56.6h-.43c-.854 19.585-1.508 41.961-2.586 60.038l-2.576 55.086h-30.343l9.26-145.035h43.677l14.207 48.421c4.517 16.774 9.041 34.847 12.258 51.843h.654c4.081-16.77 9.038-35.923 13.774-52.064l15.493-48.199h42.82l7.954 145.034zm-299.539 0 41.955-73.385-40.444-71.65h37.655l12.688 26.465c4.316 8.828 7.533 15.928 10.99 24.092h.422c3.438-9.242 6.23-15.694 9.893-24.092l12.274-26.465h37.434l-40.89 70.796 43.044 74.239h-37.866l-13.134-26.257c-5.376-10.108-8.817-17.639-12.909-26.04h-.433c-3.009 8.401-6.674 15.932-11.19 26.04l-12.042 26.257H69.992zm383.609 148.823H97.2V419.302h356.4v104.051zm31.724-148.823h-90.608V229.495h32.933v117.497h57.682v27.538h-.007z" fill="#ff8b00" data-original="#000000" class=""></path></g></svg>
